<?xml version="1.0" standalone="no"?>
<!DOCTYPE svg PUBLIC "-//W3C//DTD SVG 1.1//EN"
  "http://www.w3.org/Graphics/SVG/1.1/DTD/svg11.dtd">
<svg version="1.1" xmlns="http://www.w3.org/2000/svg" xmlns:xlink="http://www.w3.org/1999/xlink" width="3840" height="2160" viewBox="-1089 -540.28125 2577 1449.5625" id="ccdiagram"><filter id="grayscale"><feColorMatrix type="saturate" values="0"></feColorMatrix></filter><filter id="highlight"><feColorMatrix type="matrix" color-interpolation-filters="sRGB" values="0.20338 0 0 0 0
                0 0.58474 0 0 0
                0 0 0.97033 0 0
                0 0 0 1 0"></feColorMatrix></filter><defs><style type="text/css">@import url('https://fonts.googleapis.com/css?family=Open+Sans:400,700|Inconsolata:400');</style></defs><g><rect x="-1089" y="-540.28125" width="2577" height="1449.5625" fill="none" id="interactionLayer"></rect><g pointer-events="auto"><g><g><g><polygon points="-288 93, 224 389, 224 426, 32 537, -32 537, -544 241, -544 204, -352 93" fill="#16171c" stroke-width="0" stroke="rgba(0, 0, 0, 0)"></polygon><polygon points="-320 111, 192 407, 0 518, -512 222" fill="rgba(0, 0, 0, 0)"></polygon></g></g></g><g><g><g><polygon points="-768 444, -553 571, -384 666, -384 703, -576 814, -640 814, -1024 592, -1024 555, -832 444" fill="#16171c" stroke-width="0" stroke="rgba(0, 0, 0, 0)"></polygon><polygon points="-800 463, -585 589, -416 685, -608 796, -992 574" fill="rgba(0, 0, 0, 0)"></polygon></g></g></g><g><g><g><polygon points="-464 -483, -112 -279, -112 -242, -208 -187, -208 -187, -304 -131, -368 -131, -720 -335, -720 -372, -528 -483" fill="#000000" opacity="0.3"></polygon><polygon points="-464 -490, -112 -287, -112 -250, -208 -194, -208 -194, -304 -139, -368 -139, -720 -342, -720 -379, -528 -490" fill="#16171c" stroke-width="0" stroke="rgba(0, 0, 0, 0)"></polygon><polygon points="-496 -472, -144 -268, -240 -213, -336 -157, -688 -361" fill="rgba(0, 0, 0, 0)"></polygon></g></g></g><g><g><g><polygon points="768 229, 960 340, 960 377, 768 488, 704 488, 512 377, 512 340, 704 229" fill="#000000" opacity="0.3"></polygon><polygon points="768 222, 960 333, 960 370, 768 481, 704 481, 512 370, 512 333, 704 222" fill="#16171c" stroke-width="0" stroke="rgba(0, 0, 0, 0)"></polygon><polygon points="736 241, 928 352, 736 463, 544 352" fill="rgba(0, 0, 0, 0)"></polygon></g></g></g><g><g><g><polygon points="1264 -46, 1456 65, 1456 102, 1264 213, 1200 213, 1008 102, 1008 65, 1200 -46" fill="#16171c" stroke-width="0" stroke="rgba(0, 0, 0, 0)"></polygon><polygon points="1232 -28, 1424 83, 1232 194, 1040 83" fill="rgba(0, 0, 0, 0)"></polygon></g></g></g></g><g pointer-events="auto"></g><g pointer-events="auto"></g><g pointer-events="auto"></g><g pointer-events="auto"><g><g class="cloud-maps_raptor_node" id="1063814395"></g></g></g><g pointer-events="auto"></g><g pointer-events="auto"></g><g pointer-events="auto"></g><g pointer-events="auto"></g><g pointer-events="auto"></g><g pointer-events="none"></g><g pointer-events="auto"><g id="23dedb93-35d7-40a9-abfc-51ca102f3ab2-b44adee4-6146-4a88-a410-0ce9314ee409"><g cursor="cell"><line x1="-32" y1="241" x2="256" y2="74" stroke="red" stroke-width="11" opacity="0"></line><line x1="-32" y1="241" x2="256" y2="74" stroke="#506a8d" stroke-width="5" stroke-linecap="round"></line></g></g><g id="ce069b0b-9928-4956-b5e9-082538066259-f79727bd-17f9-41e7-8b37-bd165fadcdb0"><g cursor="cell"><line x1="-528" y1="527" x2="-301" y2="396" stroke="red" stroke-width="11" opacity="0"></line><line x1="-528" y1="527" x2="-301" y2="396" stroke="#03a9f4" stroke-width="5" stroke-linecap="round"></line><polygon points="-288 389, -323 396, -305 398, -301 409, -288 389" stroke-linejoin="round" fill="#03a9f4" stroke="#03a9f4" stroke-width="1"></polygon></g></g><g id="adaf164c-2bd5-4548-80fa-3ef9637116e0-ce069b0b-9928-4956-b5e9-082538066259"><g cursor="cell"><line x1="-656" y1="453" x2="-528" y2="527" stroke="red" stroke-width="11" opacity="0"></line><line x1="-656" y1="453" x2="-528" y2="527" stroke="#03a9f4" stroke-width="5" stroke-linecap="round"></line></g></g><g id="23dedb93-35d7-40a9-abfc-51ca102f3ab2-67e4b84d-d007-4bda-9806-66382c89d4d5"><g cursor="cell"><line x1="-32" y1="241" x2="256" y2="74" stroke="red" stroke-width="11" opacity="0"></line><line x1="-32" y1="241" x2="256" y2="74" stroke="#506a8d" stroke-width="5" stroke-linecap="round"></line></g></g><g id="d653c051-f32f-4034-ae34-fbf9489357fe-64479655-7ca5-4d4f-b800-5ac3297b8618"><g cursor="cell"><line x1="-484" y1="650" x2="-400" y2="601" stroke="red" stroke-width="11" opacity="0"></line><line x1="-484" y1="650" x2="-400" y2="601" stroke="#03a9f4" stroke-width="5" stroke-linecap="round"></line></g></g><g id="d1db53e1-611d-4995-ae58-5af0da14c4be-f0642fe1-e175-4cf6-ad0e-0bac8af90c36"><g cursor="cell"><line x1="-528" y1="527" x2="-301" y2="396" stroke="red" stroke-width="11" opacity="0"></line><line x1="-528" y1="527" x2="-301" y2="396" stroke="#03a9f4" stroke-width="5" stroke-linecap="round"></line><polygon points="-288 389, -323 396, -305 398, -301 409, -288 389" stroke-linejoin="round" fill="#03a9f4" stroke="#03a9f4" stroke-width="1"></polygon></g></g><g id="b44adee4-6146-4a88-a410-0ce9314ee409-5f49dd27-f033-478e-ba7a-1ed6309243d0"><g cursor="cell"><line x1="256" y1="74" x2="-195" y2="-187" stroke="red" stroke-width="11" opacity="0"></line><line x1="256" y1="74" x2="-195" y2="-187" stroke="#506a8d" stroke-width="5" stroke-linecap="round"></line><polygon points="-208 -194, -195 -174, -191 -184, -173 -187, -208 -194" stroke-linejoin="round" fill="#506a8d" stroke="#506a8d" stroke-width="1"></polygon></g></g><g id="f7f4b002-70bd-4c8e-a80d-64cfb72b2b70-adaf164c-2bd5-4548-80fa-3ef9637116e0"><g cursor="cell"><line x1="-750" y1="508" x2="-656" y2="453" stroke="red" stroke-width="11" opacity="0"></line><line x1="-750" y1="508" x2="-656" y2="453" stroke="#03a9f4" stroke-width="5" stroke-linecap="round"></line></g></g><g id="67e4b84d-d007-4bda-9806-66382c89d4d5-b7bae0e3-0f4a-4d76-b64e-89b7fea279f3"><g cursor="cell"><line x1="256" y1="74" x2="595" y2="270" stroke="red" stroke-width="11" opacity="0"></line><line x1="256" y1="74" x2="595" y2="270" stroke="#506a8d" stroke-width="5" stroke-linecap="round"></line><polygon points="608 278, 595 257, 591 268, 573 270, 608 278" stroke-linejoin="round" fill="#506a8d" stroke="#506a8d" stroke-width="1"></polygon></g></g><g id="ca9a3ff4-a202-4717-8669-efe57cd001a9-7dd1a092-f9e8-4c55-81c1-5534fee33f59"><g cursor="cell"><line x1="832" y1="296" x2="1090" y2="164" stroke="red" stroke-width="11" opacity="0"></line><line x1="832" y1="296" x2="1090" y2="164" stroke="#506a8d" stroke-width="5" stroke-linecap="round"></line><polygon points="1104 157, 1068 163, 1086 167, 1089 177, 1104 157" stroke-linejoin="round" fill="#506a8d" stroke="#506a8d" stroke-width="1"></polygon></g></g><g id="64479655-7ca5-4d4f-b800-5ac3297b8618-d1db53e1-611d-4995-ae58-5af0da14c4be"><g cursor="cell"><line x1="-400" y1="601" x2="-528" y2="527" stroke="red" stroke-width="11" opacity="0"></line><line x1="-400" y1="601" x2="-528" y2="527" stroke="#03a9f4" stroke-width="5" stroke-linecap="round"></line></g></g><g id="7685c38d-3357-47a7-a778-51e93e3c60c2-03ad9b56-a54b-483c-bc12-e45f1e76521e"><g cursor="cell"><line x1="-622" y1="582" x2="-301" y2="396" stroke="red" stroke-width="11" opacity="0"></line><line x1="-622" y1="582" x2="-301" y2="396" stroke="#03a9f4" stroke-width="5" stroke-linecap="round"></line><polygon points="-288 389, -323 396, -305 398, -301 409, -288 389" stroke-linejoin="round" fill="#03a9f4" stroke="#03a9f4" stroke-width="1"></polygon></g></g></g><g pointer-events="auto"><g><g class="cloud-maps_raptor_node" id="ca9a3ff4-a202-4717-8669-efe57cd001a9"><g><polygon points="736 241, 864 315, 736 389, 608 315" fill="#484e56"></polygon><polygon points="608 352, 736 426, 736 389, 608 315" fill="#31353a" stroke="#000"></polygon><polygon points="736 426, 864 352, 864 315, 736 389" fill="#1a1c1e" stroke="#000"></polygon><polygon points="736 241, 608 315, 608 352, 736 426, 864 352, 864 315" fill="none" stroke="#131417" stroke-width="2"></polygon></g></g></g><g><g class="cloud-maps_raptor_node" id="23dedb93-35d7-40a9-abfc-51ca102f3ab2"><svg x="-160" y="204" width="128" height="111" fill-rule="evenodd" stroke-linejoin="round" stroke-miterlimit="1.414"><path fill="#ccc" d="M64 74v37l64-37V37L64 74Z"></path><path fill="#e6e6e6" d="M0 37v37l64 37V74L0 37Z"></path><path fill="#fff" d="M0 37 64 0l64 37-64 37L0 37Z"></path><path fill="#999" d="m64 73.407 62.111-35.86.514.889-62.487 36.078h-.276L.743 38.072l.514-.89L64 73.407Z"></path><path fill="#999" d="M63.486 74h1.027v36h-1.027z"></path><path fill="#131417" d="M128 37v37l-64 37L0 74V37L64 0l64 37ZM2.054 38.185v34.63L64 108.627l61.946-35.812v-34.63L64 2.373 2.054 38.185Z"></path></svg><svg x="-102" y="222" width="54" height="36" style="overflow: visible; cursor: default;"><rect transform="matrix(0.707 0.409 -0.707 0.409 0 0)" width="54" height="36" rx="5" ry="5" fill="#ffffff"></rect><text transform="matrix(0.707 0.409 -0.707 0.409 0 0)" font-family="Open Sans" text-anchor="middle" x="50%" font-weight="normal" font-size="20pt" y="80%" fill="#000000">M5</text></svg></g></g><g><g class="cloud-maps_raptor_node" id="152a224a-7de1-41f3-aa9a-001e1a0ca292"><svg x="-384" y="148" width="128" height="111" fill-rule="evenodd" stroke-linejoin="round" stroke-miterlimit="1.414"><path fill="#ccc" d="M64 74v37l64-37V37L64 74Z"></path><path fill="#e6e6e6" d="M0 37v37l64 37V74L0 37Z"></path><path fill="#fff" d="M0 37 64 0l64 37-64 37L0 37Z"></path><path fill="#999" d="m64 73.407 62.111-35.86.514.889-62.487 36.078h-.276L.743 38.072l.514-.89L64 73.407Z"></path><path fill="#999" d="M63.486 74h1.027v36h-1.027z"></path><path fill="#131417" d="M128 37v37l-64 37L0 74V37L64 0l64 37ZM2.054 38.185v34.63L64 108.627l61.946-35.812v-34.63L64 2.373 2.054 38.185Z"></path></svg><svg x="-326" y="167" width="54" height="36" style="overflow: visible; cursor: default;"><rect transform="matrix(0.707 0.409 -0.707 0.409 0 0)" width="54" height="36" rx="5" ry="5" fill="#ffffff"></rect><text transform="matrix(0.707 0.409 -0.707 0.409 0 0)" font-family="Open Sans" text-anchor="middle" x="50%" font-weight="normal" font-size="20pt" y="80%" fill="#000000">M5</text></svg></g></g><g><g class="cloud-maps_raptor_node" id="c6aab5a0-7e5f-4441-8462-9ab219069508"><svg x="-320" y="185" width="128" height="111" fill-rule="evenodd" stroke-linejoin="round" stroke-miterlimit="1.414"><path fill="#ccc" d="M64 74v37l64-37V37L64 74Z"></path><path fill="#e6e6e6" d="M0 37v37l64 37V74L0 37Z"></path><path fill="#fff" d="M0 37 64 0l64 37-64 37L0 37Z"></path><path fill="#999" d="m64 73.407 62.111-35.86.514.889-62.487 36.078h-.276L.743 38.072l.514-.89L64 73.407Z"></path><path fill="#999" d="M63.486 74h1.027v36h-1.027z"></path><path fill="#131417" d="M128 37v37l-64 37L0 74V37L64 0l64 37ZM2.054 38.185v34.63L64 108.627l61.946-35.812v-34.63L64 2.373 2.054 38.185Z"></path></svg><svg x="-262" y="204" width="54" height="36" style="overflow: visible; cursor: default;"><rect transform="matrix(0.707 0.409 -0.707 0.409 0 0)" width="54" height="36" rx="5" ry="5" fill="#ffffff"></rect><text transform="matrix(0.707 0.409 -0.707 0.409 0 0)" font-family="Open Sans" text-anchor="middle" x="50%" font-weight="normal" font-size="20pt" y="80%" fill="#000000">M5</text></svg></g></g><g><g class="cloud-maps_raptor_node" id="bc7cc79e-7ebf-4fa1-9394-20503318df51"><svg x="-256" y="222" width="128" height="111" fill-rule="evenodd" stroke-linejoin="round" stroke-miterlimit="1.414"><path fill="#ccc" d="M64 74v37l64-37V37L64 74Z"></path><path fill="#e6e6e6" d="M0 37v37l64 37V74L0 37Z"></path><path fill="#fff" d="M0 37 64 0l64 37-64 37L0 37Z"></path><path fill="#999" d="m64 73.407 62.111-35.86.514.889-62.487 36.078h-.276L.743 38.072l.514-.89L64 73.407Z"></path><path fill="#999" d="M63.486 74h1.027v36h-1.027z"></path><path fill="#131417" d="M128 37v37l-64 37L0 74V37L64 0l64 37ZM2.054 38.185v34.63L64 108.627l61.946-35.812v-34.63L64 2.373 2.054 38.185Z"></path></svg><svg x="-198" y="241" width="54" height="36" style="overflow: visible; cursor: default;"><rect transform="matrix(0.707 0.409 -0.707 0.409 0 0)" width="54" height="36" rx="5" ry="5" fill="#ffffff"></rect><text transform="matrix(0.707 0.409 -0.707 0.409 0 0)" font-family="Open Sans" text-anchor="middle" x="50%" font-weight="normal" font-size="20pt" y="80%" fill="#000000">M5</text></svg></g></g><g><g class="cloud-maps_raptor_node" id="d9442323-1efd-46db-88c7-2303b1478831"><svg x="-192" y="259" width="128" height="111" fill-rule="evenodd" stroke-linejoin="round" stroke-miterlimit="1.414"><path fill="#ccc" d="M64 74v37l64-37V37L64 74Z"></path><path fill="#e6e6e6" d="M0 37v37l64 37V74L0 37Z"></path><path fill="#fff" d="M0 37 64 0l64 37-64 37L0 37Z"></path><path fill="#999" d="m64 73.407 62.111-35.86.514.889-62.487 36.078h-.276L.743 38.072l.514-.89L64 73.407Z"></path><path fill="#999" d="M63.486 74h1.027v36h-1.027z"></path><path fill="#131417" d="M128 37v37l-64 37L0 74V37L64 0l64 37ZM2.054 38.185v34.63L64 108.627l61.946-35.812v-34.63L64 2.373 2.054 38.185Z"></path></svg><svg x="-134" y="278" width="54" height="36" style="overflow: visible; cursor: default;"><rect transform="matrix(0.707 0.409 -0.707 0.409 0 0)" width="54" height="36" rx="5" ry="5" fill="#ffffff"></rect><text transform="matrix(0.707 0.409 -0.707 0.409 0 0)" font-family="Open Sans" text-anchor="middle" x="50%" font-weight="normal" font-size="20pt" y="80%" fill="#000000">M5</text></svg></g></g><g><g class="cloud-maps_raptor_node" id="aadcf6c0-cf0e-43d2-8c98-7c7b70f722c8"><svg x="-128" y="296" width="128" height="111" fill-rule="evenodd" stroke-linejoin="round" stroke-miterlimit="1.414"><path fill="#ccc" d="M64 74v37l64-37V37L64 74Z"></path><path fill="#e6e6e6" d="M0 37v37l64 37V74L0 37Z"></path><path fill="#fff" d="M0 37 64 0l64 37-64 37L0 37Z"></path><path fill="#999" d="m64 73.407 62.111-35.86.514.889-62.487 36.078h-.276L.743 38.072l.514-.89L64 73.407Z"></path><path fill="#999" d="M63.486 74h1.027v36h-1.027z"></path><path fill="#131417" d="M128 37v37l-64 37L0 74V37L64 0l64 37ZM2.054 38.185v34.63L64 108.627l61.946-35.812v-34.63L64 2.373 2.054 38.185Z"></path></svg><svg x="-70" y="315" width="54" height="36" style="overflow: visible; cursor: default;"><rect transform="matrix(0.707 0.409 -0.707 0.409 0 0)" width="54" height="36" rx="5" ry="5" fill="#ffffff"></rect><text transform="matrix(0.707 0.409 -0.707 0.409 0 0)" font-family="Open Sans" text-anchor="middle" x="50%" font-weight="normal" font-size="20pt" y="80%" fill="#000000">M5</text></svg></g></g><g><g class="cloud-maps_raptor_node" id="4f56c78b-859f-4993-98de-929f0b2fa47a"><svg x="-64" y="333" width="128" height="111" fill-rule="evenodd" stroke-linejoin="round" stroke-miterlimit="1.414"><path fill="#ccc" d="M64 74v37l64-37V37L64 74Z"></path><path fill="#e6e6e6" d="M0 37v37l64 37V74L0 37Z"></path><path fill="#fff" d="M0 37 64 0l64 37-64 37L0 37Z"></path><path fill="#999" d="m64 73.407 62.111-35.86.514.889-62.487 36.078h-.276L.743 38.072l.514-.89L64 73.407Z"></path><path fill="#999" d="M63.486 74h1.027v36h-1.027z"></path><path fill="#131417" d="M128 37v37l-64 37L0 74V37L64 0l64 37ZM2.054 38.185v34.63L64 108.627l61.946-35.812v-34.63L64 2.373 2.054 38.185Z"></path></svg><svg x="-6" y="352" width="54" height="36" style="overflow: visible; cursor: default;"><rect transform="matrix(0.707 0.409 -0.707 0.409 0 0)" width="54" height="36" rx="5" ry="5" fill="#ffffff"></rect><text transform="matrix(0.707 0.409 -0.707 0.409 0 0)" font-family="Open Sans" text-anchor="middle" x="50%" font-weight="normal" font-size="20pt" y="80%" fill="#000000">M5</text></svg></g></g><g><g class="cloud-maps_raptor_node" id="b1a8aeee-0ca2-441e-8a59-3338b5e3eba9"><svg x="-808" y="589" width="63" height="95.068"><path fill="#fff" stroke="#131417" d="M62.5 85.684q0 6.102-3.216 7.779-3.216 1.677-8.542-1.398l-38.486-22.22q-5.329-3.077-8.542-8.466Q.501 55.991.498 49.887q0-2.693.156-5.172.155-2.479.616-5.185.461-2.707 1.167-4.845.705-2.139 1.893-3.864 1.19-1.726 2.73-2.541 1.541-.816 3.766-.546 2.224.27 4.91 1.818.397.23 1.849 2.162t3.28 4.333q1.827 2.402 4.757 5.187 2.93 2.785 5.878 4.487 2.95 1.703 5.88 2.301 2.929.598 4.756.306 1.827-.292 3.28-.546 1.452-.255 1.85-.026 2.685 1.55 4.909 3.85 2.224 2.301 3.765 4.894 1.542 2.593 2.73 5.693 1.189 3.101 1.894 6.051.705 2.95 1.166 6.192.462 3.242.617 5.897.155 2.655.155 5.352zm-14.09-53.54q0 8.083-4.955 10.944-4.954 2.86-11.955-1.182-7-4.042-11.955-12.623-4.954-8.58-4.954-16.664 0-8.084 4.954-10.944 4.954-2.86 11.955 1.181 7.001 4.042 11.955 12.623 4.954 8.58 4.954 16.665z" stroke-width=".996"></path></svg></g></g></g><g pointer-events="auto"></g><g pointer-events="auto"><g><g class="cloud-maps_raptor_node" id="d653c051-f32f-4034-ae34-fbf9489357fe"><svg x="-544" y="685" overflow="visible"><g transform="scale(2.760146409726303) matrix(0.707 0.409 -0.707 0.409 0 0)"><circle cx="0" cy="0" fill="#ffffff" r="31"></circle><svg width="48" height="48" x="-24" y="-24" style="fill: rgb(0, 0, 0);"><svg xmlns="http://www.w3.org/2000/svg" width="48" height="48" viewBox="0 0 48 48"><g fill="none" fill-rule="evenodd"><path fill="#232F3D" d="M19.603 6.109a.308.308 0 1 1 0 .616.308.308 0 0 1 0-.616Zm0 2.115a1.81 1.81 0 0 0 1.808-1.807 1.81 1.81 0 0 0-1.808-1.808 1.81 1.81 0 0 0-1.808 1.808 1.81 1.81 0 0 0 1.808 1.807Zm3.409-.823h5.362v-2h-5.362v2Zm9.161 36.425H15.812c-.999 0-1.812-.797-1.812-1.776v-1.409h19.986v1.409c0 .979-.814 1.776-1.813 1.776ZM14 10.802h19.986v27.839H14V10.802ZM16.646 4h14.693c1.459 0 2.647 1.167 2.647 2.6v2.202H14V6.6C14 5.167 15.187 4 16.646 4Zm14.708-2H16.646C14.084 2 12 4.064 12 6.6v35.45c0 2.082 1.71 3.776 3.812 3.776h16.361c2.103 0 3.813-1.694 3.813-3.776V6.597c0-2.53-2.076-4.589-4.632-4.597Z"></path></g></svg></svg></g></svg></g></g><g><g class="cloud-maps_raptor_node" id="7685c38d-3357-47a7-a778-51e93e3c60c2"><svg x="-672" y="611" overflow="visible"><g transform="scale(1.3975424859373686) matrix(0.707 0.409 -0.707 0.409 0 0)"><circle cx="0" cy="0" fill="transparent" r="40"></circle><svg width="100" height="100" x="-50" y="-50" style="fill: rgb(0, 0, 0);"><svg xmlns="http://www.w3.org/2000/svg" width="100" height="100" data-name="Layer 1" viewBox="0 0 100 100"><g><rect width="53" height="53" x="23.5" y="25.99" fill="#19486f" rx="9.12" ry="9.12"></rect><rect width="53" height="53" x="23.5" y="23.51" fill="#2e73b8" rx="9.12" ry="9.12"></rect><path fill="#2e73b8" d="M60 14.4h4v13.65h-4zM36 14.4h4v13.65h-4zM54 14.4h4v13.65h-4zM42 14.4h4v13.65h-4zM48 14.4h4v13.65h-4zM14.4 60h18.1v4H14.4zM14.4 42h18.1v4H14.4zM14.4 54h18.1v4H14.4zM14.4 48h18.1v4H14.4zM14.4 36h18.1v4H14.4zM36 69.88h4V85.6h-4zM60 69.88h4V85.6h-4zM42 69.88h4V85.6h-4zM54 69.88h4V85.6h-4zM48 69.88h4V85.6h-4zM69.67 54h15.94v4H69.67zM69.67 36h15.94v4H69.67zM69.67 48h15.94v4H69.67zM69.67 42h15.94v4H69.67zM69.67 60h15.94v4H69.67zM38.67 50.15l2.83-8L57 43.82l6 12.83-19.33 4.5-5-11z"></path><g><circle cx="36.75" cy="57.6" r="7.72" fill="#2e73b8"></circle><path fill="#fff" d="M36.75 66.82A9.22 9.22 0 1 1 46 57.6a9.23 9.23 0 0 1-9.25 9.22Zm0-15.44A6.22 6.22 0 1 0 43 57.6a6.23 6.23 0 0 0-6.25-6.22Z"></path></g><g><path fill="#2e73b8" d="M55.53 57.6a7.72 7.72 0 1 1 7.72 7.72 7.72 7.72 0 0 1-7.72-7.72"></path><path fill="#fff" d="M63.25 66.82a9.22 9.22 0 1 1 9.22-9.22 9.23 9.23 0 0 1-9.22 9.22Zm0-15.44a6.22 6.22 0 1 0 6.22 6.22 6.23 6.23 0 0 0-6.22-6.22Z"></path></g><path fill="#fff" d="M36.75 59.1a1.5 1.5 0 0 1-1.43-1.94l4.75-15.45a1.5 1.5 0 0 1 2.75-.28l7.13 13 5.72-11.25a1.45 1.45 0 0 1 1.33-.86 1.5 1.5 0 0 1 1.33.88L64.62 57a1.5 1.5 0 0 1-1.37 2.12H50a1.6 1.6 0 0 1-.68-.15 1.49 1.49 0 0 1-.63-.62L41.89 46l-3.71 12a1.5 1.5 0 0 1-1.43 1.1Zm15.7-3h8.48l-4-8.82Z"></path><path fill="#fff" d="M65.58 59.1h-18l9.52-18.74Zm-13.13-3h8.48l-4-8.82Z"></path><path fill="#fff" d="M57 45.32h-.16l-15.46-1.67A6.42 6.42 0 0 1 37 41.72a4 4 0 0 1-.82-3.24 4.53 4.53 0 0 1 1.5-3 4.37 4.37 0 0 1 3.54-.85 1.5 1.5 0 1 1-.42 3 1.18 1.18 0 0 0-1.62 1.14s0 .11 0 .16a1.06 1.06 0 0 0 .17.93 3.58 3.58 0 0 0 2.21.83l15.6 1.67a1.5 1.5 0 0 1-.16 3Z"></path><path fill="#fff" d="M56.88 47.07a1.5 1.5 0 0 1-1.5-1.5v-4.82a1.5 1.5 0 0 1 3 0v4.81a1.5 1.5 0 0 1-1.5 1.51Z"></path><g><circle cx="50" cy="57.6" r="2.18" fill="#2e73b8"></circle><path fill="#fff" d="M50 61.28a3.68 3.68 0 1 1 3.68-3.68A3.69 3.69 0 0 1 50 61.28Zm0-4.37a.68.68 0 1 0 .68.68.68.68 0 0 0-.68-.68Z"></path></g><path fill="#fff" d="M58.39 41.44h-4.85a1.5 1.5 0 0 1 0-3h4.85c.32 0 .32-.12.32-.33a1.5 1.5 0 0 1 3 0 3.27 3.27 0 0 1-3.32 3.33Z"></path></g></svg></svg></g></svg></g></g><g><g class="cloud-maps_raptor_node" id="f7f4b002-70bd-4c8e-a80d-64cfb72b2b70"><svg x="-800" y="537" overflow="visible"><g transform="scale(1.3975424859373686) matrix(0.707 0.409 -0.707 0.409 0 0)"><circle cx="0" cy="0" fill="transparent" r="40"></circle><svg width="100" height="100" x="-50" y="-50" style="fill: rgb(0, 0, 0);"><svg xmlns="http://www.w3.org/2000/svg" width="100" height="100" data-name="Layer 1" viewBox="0 0 100 100"><g><rect width="53" height="53" x="23.5" y="25.99" fill="#19486f" rx="9.12" ry="9.12"></rect><rect width="53" height="53" x="23.5" y="23.51" fill="#2e73b8" rx="9.12" ry="9.12"></rect><path fill="#2e73b8" d="M60 14.4h4v13.65h-4zM36 14.4h4v13.65h-4zM54 14.4h4v13.65h-4zM42 14.4h4v13.65h-4zM48 14.4h4v13.65h-4zM14.4 60h18.1v4H14.4zM14.4 42h18.1v4H14.4zM14.4 54h18.1v4H14.4zM14.4 48h18.1v4H14.4zM14.4 36h18.1v4H14.4zM36 69.88h4V85.6h-4zM60 69.88h4V85.6h-4zM42 69.88h4V85.6h-4zM54 69.88h4V85.6h-4zM48 69.88h4V85.6h-4zM69.67 54h15.94v4H69.67zM69.67 36h15.94v4H69.67zM69.67 48h15.94v4H69.67zM69.67 42h15.94v4H69.67zM69.67 60h15.94v4H69.67z"></path><path fill="#fff" d="M28.45 58.11h-.65a1.5 1.5 0 0 1 0-3h.66a1.5 1.5 0 0 1 0 3ZM73.49 58.4h-.66a1.5 1.5 0 0 1 0-3h.66a1.5 1.5 0 0 1 0 3Z"></path><g><path fill="#2e73b8" d="M67.38 58h3.83v-3.4c0-7-8.37-7-8.37-7l-3.17-7.42H43.92l-2.17 7.17-11.92 3.3V58h2.86"></path><path fill="#fff" d="M71.21 59.5h-3.83a1.5 1.5 0 0 1 0-3h2.33v-1.9c0-5.35-6.17-5.54-6.88-5.54a1.51 1.51 0 0 1-1.38-.91l-2.78-6.51H45l-1.84 6.1a1.5 1.5 0 0 1-1 1l-10.82 3v4.76h1.36a1.5 1.5 0 0 1 0 3h-2.87a1.5 1.5 0 0 1-1.5-1.5v-7.35a1.5 1.5 0 0 1 1.1-1.44l11.12-3.11 1.93-6.38a1.5 1.5 0 0 1 1.44-1.07h15.75a1.5 1.5 0 0 1 1.38.91l2.8 6.55c3.54.32 8.86 2.36 8.86 8.49V58a1.5 1.5 0 0 1-1.5 1.5Z"></path></g><g><path fill="#2e73b8" d="M67.38 58h3.83v-3.4c0-7-8.37-7-8.37-7l-3.17-7.42H43.92l-2.17 7.17-11.92 3.3V58h2.86"></path><path fill="#fff" d="M71.21 59.5h-3.83a1.5 1.5 0 0 1 0-3h2.33v-1.9c0-5.35-6.17-5.54-6.88-5.54a1.51 1.51 0 0 1-1.38-.91l-2.78-6.51H45l-1.84 6.1a1.5 1.5 0 0 1-1 1l-10.82 3v4.76h1.36a1.5 1.5 0 0 1 0 3h-2.87a1.5 1.5 0 0 1-1.5-1.5v-7.35a1.5 1.5 0 0 1 1.1-1.44l11.12-3.11 1.93-6.38a1.5 1.5 0 0 1 1.44-1.07h15.75a1.5 1.5 0 0 1 1.38.91l2.8 6.55c3.54.32 8.86 2.36 8.86 8.49V58a1.5 1.5 0 0 1-1.5 1.5Z"></path></g><g><circle cx="36.98" cy="58" r="3.94" fill="#2e73b8"></circle><path fill="#fff" d="M37 63.44A5.44 5.44 0 1 1 42.42 58 5.44 5.44 0 0 1 37 63.44Zm0-7.87A2.44 2.44 0 1 0 39.42 58 2.44 2.44 0 0 0 37 55.57Z"></path></g><g><circle cx="62.83" cy="58" r="3.94" fill="#2e73b8"></circle><path fill="#fff" d="M62.83 63.44A5.44 5.44 0 1 1 68.27 58a5.44 5.44 0 0 1-5.44 5.44Zm0-7.87A2.44 2.44 0 1 0 65.27 58a2.44 2.44 0 0 0-2.44-2.43Z"></path></g><path fill="#fff" d="M58.25 59.5H41.63a1.5 1.5 0 0 1 0-3h16.62a1.5 1.5 0 0 1 0 3Z"></path></g></svg></svg></g></svg></g></g><g><g class="cloud-maps_raptor_node" id="1b8780e8-b969-433c-ac21-ce0ba5892f99"><svg x="-416" y="-314" overflow="visible"><g transform="scale(4.264961199760036) matrix(0.707 0.409 -0.707 0.409 0 0)"><circle cx="0" cy="0" fill="#ffffff" r="24"></circle><svg width="34" height="32" x="-17" y="-16" style="fill: rgb(0, 0, 0);"><svg xmlns="http://www.w3.org/2000/svg" width="34" height="32" viewBox="0 0 34 32"><path d="M7.429 22.857A2.866 2.866 0 0 1 4.572 20V7.429a2.866 2.866 0 0 1 2.857-2.857h19.429a2.866 2.866 0 0 1 2.857 2.857V20a2.866 2.866 0 0 1-2.857 2.857H7.429zM6.857 7.429V20c0 .304.268.571.571.571h19.429a.587.587 0 0 0 .571-.571V7.429a.587.587 0 0 0-.571-.571H7.428a.587.587 0 0 0-.571.571zM31.429 24h2.857v1.714c0 .946-1.286 1.714-2.857 1.714H2.858c-1.571 0-2.857-.768-2.857-1.714V24H31.43zm-12.858 1.714c.161 0 .286-.125.286-.286s-.125-.286-.286-.286h-2.857c-.161 0-.286.125-.286.286s.125.286.286.286h2.857z"></path></svg></svg></g></svg></g></g><g><g class="cloud-maps_raptor_node" id="c9c01f73-e00e-4b65-8be6-5dff5f500714"><svg x="1152" y="74" overflow="visible"><g transform="scale(1.766493702224834) matrix(0.707 0.409 -0.707 0.409 0 0)"><circle cx="0" cy="0" fill="#ffffff" r="31"></circle><svg width="48" height="48" x="-24" y="-24" style="fill: rgb(0, 0, 0);"><svg xmlns="http://www.w3.org/2000/svg" width="48" height="48" viewBox="0 0 48 48"><g fill="none" fill-rule="evenodd"><path fill="#232F3D" d="M42.299 38.773v1.923a.793.793 0 0 1-.793.794H30.762a.794.794 0 0 1-.794-.794v-1.923c0-.438.355-.793.794-.793h10.744c.439 0 .793.355.793.793Zm1.498 3.626a.646.646 0 0 1-.644.645H4.645A.646.646 0 0 1 4 42.399v-5.388c0-.355.289-.644.645-.644h38.508c.355 0 .644.289.644.644v5.388Zm-.644-8.032H4.645A2.648 2.648 0 0 0 2 37.011v5.388a2.649 2.649 0 0 0 2.645 2.645h38.508a2.648 2.648 0 0 0 2.644-2.645v-5.388a2.647 2.647 0 0 0-2.644-2.644ZM7.501 27.21h32.763V7.502H7.501V27.21ZM40.842 5.502H6.924c-.784 0-1.423.637-1.423 1.421v20.865c0 .784.639 1.422 1.423 1.422h33.918c.784 0 1.422-.638 1.422-1.422V6.923c0-.784-.638-1.421-1.422-1.421Zm2.955 24.565a.645.645 0 0 1-.644.644H4.645A.645.645 0 0 1 4 30.067V4.644C4 4.289 4.289 4 4.645 4h38.508c.355 0 .644.289.644.644v25.423ZM43.153 2H4.645A2.648 2.648 0 0 0 2 4.644v25.423a2.648 2.648 0 0 0 2.645 2.644h38.508a2.647 2.647 0 0 0 2.644-2.644V4.644A2.647 2.647 0 0 0 43.153 2Z"></path></g></svg></svg></g></svg></g></g><g><g class="cloud-maps_raptor_node" id="5a2200b5-7b55-4376-9541-1cf95465425a"><svg x="1248" y="19" overflow="visible"><g transform="scale(1.766493702224834) matrix(0.707 0.409 -0.707 0.409 0 0)"><circle cx="0" cy="0" fill="#ffffff" r="31"></circle><svg width="48" height="48" x="-24" y="-24" style="fill: rgb(0, 0, 0);"><svg xmlns="http://www.w3.org/2000/svg" width="48" height="48" viewBox="0 0 48 48"><g fill="none" fill-rule="evenodd"><path fill="#232F3D" d="M42.299 38.773v1.923a.793.793 0 0 1-.793.794H30.762a.794.794 0 0 1-.794-.794v-1.923c0-.438.355-.793.794-.793h10.744c.439 0 .793.355.793.793Zm1.498 3.626a.646.646 0 0 1-.644.645H4.645A.646.646 0 0 1 4 42.399v-5.388c0-.355.289-.644.645-.644h38.508c.355 0 .644.289.644.644v5.388Zm-.644-8.032H4.645A2.648 2.648 0 0 0 2 37.011v5.388a2.649 2.649 0 0 0 2.645 2.645h38.508a2.648 2.648 0 0 0 2.644-2.645v-5.388a2.647 2.647 0 0 0-2.644-2.644ZM7.501 27.21h32.763V7.502H7.501V27.21ZM40.842 5.502H6.924c-.784 0-1.423.637-1.423 1.421v20.865c0 .784.639 1.422 1.423 1.422h33.918c.784 0 1.422-.638 1.422-1.422V6.923c0-.784-.638-1.421-1.422-1.421Zm2.955 24.565a.645.645 0 0 1-.644.644H4.645A.645.645 0 0 1 4 30.067V4.644C4 4.289 4.289 4 4.645 4h38.508c.355 0 .644.289.644.644v25.423ZM43.153 2H4.645A2.648 2.648 0 0 0 2 4.644v25.423a2.648 2.648 0 0 0 2.645 2.644h38.508a2.647 2.647 0 0 0 2.644-2.644V4.644A2.647 2.647 0 0 0 43.153 2Z"></path></g></svg></svg></g></svg></g></g><g><g class="cloud-maps_raptor_node" id="eddba705-6724-4fae-9996-5da8eac23b90"><svg x="1248" y="130" overflow="visible"><g transform="scale(1.766493702224834) matrix(0.707 0.409 -0.707 0.409 0 0)"><circle cx="0" cy="0" fill="#ffffff" r="31"></circle><svg width="48" height="48" x="-24" y="-24" style="fill: rgb(0, 0, 0);"><svg xmlns="http://www.w3.org/2000/svg" width="48" height="48" viewBox="0 0 48 48"><g fill="none" fill-rule="evenodd"><path fill="#232F3D" d="M19.603 6.109a.308.308 0 1 1 0 .616.308.308 0 0 1 0-.616Zm0 2.115a1.81 1.81 0 0 0 1.808-1.807 1.81 1.81 0 0 0-1.808-1.808 1.81 1.81 0 0 0-1.808 1.808 1.81 1.81 0 0 0 1.808 1.807Zm3.409-.823h5.362v-2h-5.362v2Zm9.161 36.425H15.812c-.999 0-1.812-.797-1.812-1.776v-1.409h19.986v1.409c0 .979-.814 1.776-1.813 1.776ZM14 10.802h19.986v27.839H14V10.802ZM16.646 4h14.693c1.459 0 2.647 1.167 2.647 2.6v2.202H14V6.6C14 5.167 15.187 4 16.646 4Zm14.708-2H16.646C14.084 2 12 4.064 12 6.6v35.45c0 2.082 1.71 3.776 3.812 3.776h16.361c2.103 0 3.813-1.694 3.813-3.776V6.597c0-2.53-2.076-4.589-4.632-4.597Z"></path></g></svg></svg></g></svg></g></g><g><g class="cloud-maps_raptor_node" id="009ab9c4-db84-48fe-b5c8-f41940c7cd6e"><svg x="1344" y="74" overflow="visible"><g transform="scale(1.766493702224834) matrix(0.707 0.409 -0.707 0.409 0 0)"><circle cx="0" cy="0" fill="#ffffff" r="31"></circle><svg width="48" height="48" x="-24" y="-24" style="fill: rgb(0, 0, 0);"><svg xmlns="http://www.w3.org/2000/svg" width="48" height="48" viewBox="0 0 48 48"><g fill="none" fill-rule="evenodd"><path fill="#232F3D" d="M19.603 6.109a.308.308 0 1 1 0 .616.308.308 0 0 1 0-.616Zm0 2.115a1.81 1.81 0 0 0 1.808-1.807 1.81 1.81 0 0 0-1.808-1.808 1.81 1.81 0 0 0-1.808 1.808 1.81 1.81 0 0 0 1.808 1.807Zm3.409-.823h5.362v-2h-5.362v2Zm9.161 36.425H15.812c-.999 0-1.812-.797-1.812-1.776v-1.409h19.986v1.409c0 .979-.814 1.776-1.813 1.776ZM14 10.802h19.986v27.839H14V10.802ZM16.646 4h14.693c1.459 0 2.647 1.167 2.647 2.6v2.202H14V6.6C14 5.167 15.187 4 16.646 4Zm14.708-2H16.646C14.084 2 12 4.064 12 6.6v35.45c0 2.082 1.71 3.776 3.812 3.776h16.361c2.103 0 3.813-1.694 3.813-3.776V6.597c0-2.53-2.076-4.589-4.632-4.597Z"></path></g></svg></svg></g></svg></g></g></g><g pointer-events="auto"><g><g class="cloud-maps_raptor_node" id="ce5e2199-40e0-439b-a17e-722199c7ca2d"><svg x="-688" y="675" overflow="visible"><text stroke="#000000" stroke-width="2" font-family="Open Sans" y="36.5" font-size="25pt" fill="#ffffff" font-weight="bold" transform="matrix(0.707 0.409 -0.707 0.409 0 0)" xml:space="preserve"><tspan x="8" dy="0">Mobile client</tspan></text><text font-family="Open Sans" y="36.5" font-size="25pt" fill="#ffffff" font-weight="bold" transform="matrix(0.707 0.409 -0.707 0.409 0 0)" xml:space="preserve"><tspan x="8" dy="0">Mobile client</tspan></text></svg></g></g><g><g class="cloud-maps_raptor_node" id="7cb0d15d-23bb-416d-88d9-e25a1d725346" transform="translate(0 0)"><svg x="-1024" y="611" overflow="visible"><text stroke="#000000" stroke-width="2" font-family="Open Sans" y="46.76" font-size="34pt" fill="#ffffff" font-weight="bold" transform="matrix(0.707 0.409 -0.707 0.409 0 0)" xml:space="preserve"><tspan x="8" dy="0">JSON based protocol clients</tspan></text><text font-family="Open Sans" y="46.76" font-size="34pt" fill="#ffffff" font-weight="bold" transform="matrix(0.707 0.409 -0.707 0.409 0 0)" xml:space="preserve"><tspan x="8" dy="0">JSON based protocol clients</tspan></text></svg></g></g><g><g class="cloud-maps_raptor_node" id="2818f25e-cceb-4f34-adab-ca4b946831d7" transform="translate(0 0)"><svg x="-400" y="250" overflow="visible"><text stroke="#000000" stroke-width="2" font-family="Open Sans" y="46.76" font-size="34pt" fill="#ffffff" font-weight="bold" transform="matrix(0.707 0.409 -0.707 0.409 0 0)" xml:space="preserve"><tspan x="8" dy="0">Pulsetracker servers</tspan></text><text font-family="Open Sans" y="46.76" font-size="34pt" fill="#ffffff" font-weight="bold" transform="matrix(0.707 0.409 -0.707 0.409 0 0)" xml:space="preserve"><tspan x="8" dy="0">Pulsetracker servers</tspan></text></svg></g></g><g><g class="cloud-maps_raptor_node" id="5c2dfaab-73fe-4dde-a7e2-b4bb0dea9d7d" transform="translate(0 0)"><svg x="-464" y="490" overflow="visible"><text stroke="#000000" stroke-width="2" font-family="Open Sans" y="46.76" font-size="34pt" fill="#ffffff" font-weight="bold" transform="matrix(0.707 -0.409 0.707 0.409 0 0)" xml:space="preserve"><tspan x="8" dy="0">UDP</tspan></text><text font-family="Open Sans" y="46.76" font-size="34pt" fill="#ffffff" font-weight="bold" transform="matrix(0.707 -0.409 0.707 0.409 0 0)" xml:space="preserve"><tspan x="8" dy="0">UDP</tspan></text></svg></g></g><g><g class="cloud-maps_raptor_node" id="9f9fb70d-4a4e-452e-a581-58c1f4ee9d02"><svg x="-800" y="-370" overflow="visible"><text stroke="#000000" stroke-width="2" font-family="Open Sans" y="46.76" font-size="34pt" fill="#ffffff" font-weight="bold" transform="matrix(0.707 0.409 -0.707 0.409 0 0)" xml:space="preserve"><tspan x="8" dy="0">Pulse tracker dashboard &amp; map</tspan></text><text font-family="Open Sans" y="46.76" font-size="34pt" fill="#ffffff" font-weight="bold" transform="matrix(0.707 0.409 -0.707 0.409 0 0)" xml:space="preserve"><tspan x="8" dy="0">Pulse tracker dashboard &amp; map</tspan></text></svg></g></g><g><g class="cloud-maps_raptor_node" id="53e1442c-509b-4741-b703-c7a5f7da5abd" transform="translate(0 0)"><svg x="944" y="-120" overflow="visible"><text stroke="#000000" stroke-width="2" font-family="Open Sans" y="46.76" font-size="34pt" fill="#ffffff" font-weight="bold" transform="matrix(0.707 0.409 -0.707 0.409 0 0)" xml:space="preserve"><tspan x="8" dy="0">You clients</tspan></text><text font-family="Open Sans" y="46.76" font-size="34pt" fill="#ffffff" font-weight="bold" transform="matrix(0.707 0.409 -0.707 0.409 0 0)" xml:space="preserve"><tspan x="8" dy="0">You clients</tspan></text></svg></g></g><g><g class="cloud-maps_raptor_node" id="97c4a5e7-a10b-459d-af42-4ff8668d5ad3" transform="translate(0 0)"><svg x="448" y="352" overflow="visible"><text stroke="#000000" stroke-width="2" font-family="Open Sans" y="46.76" font-size="34pt" fill="#ffffff" font-weight="bold" transform="matrix(0.707 0.409 -0.707 0.409 0 0)" xml:space="preserve"><tspan x="8" dy="0">Our pusher server</tspan></text><text font-family="Open Sans" y="46.76" font-size="34pt" fill="#ffffff" font-weight="bold" transform="matrix(0.707 0.409 -0.707 0.409 0 0)" xml:space="preserve"><tspan x="8" dy="0">Our pusher server</tspan></text></svg></g></g><g><g class="cloud-maps_raptor_node" id="f2afa645-92b5-4904-8b9c-856d12b0b6c7" transform="translate(0 0)"><svg x="928" y="259" overflow="visible"><text stroke="#000000" stroke-width="2" font-family="Open Sans" y="36.5" font-size="25pt" fill="#ffffff" font-weight="bold" transform="matrix(0.707 -0.409 0.707 0.409 0 0)" xml:space="preserve"><tspan x="8" dy="0">websockets</tspan></text><text font-family="Open Sans" y="36.5" font-size="25pt" fill="#ffffff" font-weight="bold" transform="matrix(0.707 -0.409 0.707 0.409 0 0)" xml:space="preserve"><tspan x="8" dy="0">websockets</tspan></text></svg></g></g></g></g></svg>