<?xml version="1.0" standalone="no"?>
<!DOCTYPE svg PUBLIC "-//W3C//DTD SVG 1.1//EN"
  "http://www.w3.org/Graphics/SVG/1.1/DTD/svg11.dtd">
<svg version="1.1" xmlns="http://www.w3.org/2000/svg" xmlns:xlink="http://www.w3.org/1999/xlink" width="2576" height="1415" viewBox="816 902 2576 1415" id="ccdiagram"><filter id="grayscale"><feColorMatrix type="saturate" values="0"></feColorMatrix></filter><filter id="highlight"><feColorMatrix type="matrix" color-interpolation-filters="sRGB" values="0.20338 0 0 0 0
                0 0.58474 0 0 0
                0 0 0.97033 0 0
                0 0 0 1 0"></feColorMatrix></filter><defs><style type="text/css">@import url('https://fonts.googleapis.com/css2?family=Noto+Sans:ital,wght@0,100..900;1,100..900&amp;family=Roboto+Mono:ital,wght@0,100..700;1,100..700&amp;display=swap');</style></defs><g><rect x="816" y="902" width="2576" height="1415" fill="#000000" id="interactionLayer"></rect><g style="pointer-events: none;"><g><pattern id="gridPatternMinor" x="0" y="37" width="128" height="74" patternUnits="userSpaceOnUse"><path d="M 0 0 L 128 74" stroke="#4f4f4f" stroke-width="1"></path><path d="M 128 0 L 0 74" stroke="#4f4f4f" stroke-width="1"></path></pattern><polygon points="2104 157, 4616 1610, 2104 3062, -408 1610" fill="url(#gridPatternMinor)"></polygon></g></g><g pointer-events="auto"><g><g><g><polygon points="1632 1517, 2144 1813, 2144 1850, 1952 1961, 1888 1961, 1376 1665, 1376 1628, 1568 1517" fill="#16171c" stroke-width="0" stroke="rgba(0, 0, 0, 0)"></polygon><polygon points="1600 1536, 2112 1832, 1920 1943, 1408 1647" fill="rgba(0, 0, 0, 0)"></polygon></g></g></g><g><g><g><polygon points="1456 942, 1808 1145, 1808 1182, 1712 1238, 1712 1238, 1616 1293, 1552 1293, 1200 1090, 1200 1053, 1392 942" fill="#000000" opacity="0.3"></polygon><polygon points="1456 934, 1808 1138, 1808 1175, 1712 1230, 1712 1230, 1616 1286, 1552 1286, 1200 1082, 1200 1045, 1392 934" fill="#16171c" stroke-width="0" stroke="rgba(0, 0, 0, 0)"></polygon><polygon points="1424 953, 1776 1156, 1680 1212, 1584 1267, 1232 1064" fill="rgba(0, 0, 0, 0)"></polygon></g></g></g><g><g><g><polygon points="2672 1645, 2864 1756, 2864 1793, 2672 1904, 2608 1904, 2416 1793, 2416 1756, 2608 1645" fill="#000000" opacity="0.3"></polygon><polygon points="2672 1637, 2864 1748, 2864 1785, 2672 1896, 2608 1896, 2416 1785, 2416 1748, 2608 1637" fill="#16171c" stroke-width="0" stroke="rgba(0, 0, 0, 0)"></polygon><polygon points="2640 1656, 2832 1767, 2640 1878, 2448 1767" fill="rgba(0, 0, 0, 0)"></polygon></g></g></g><g><g><g><polygon points="3168 1351, 3360 1462, 3360 1499, 3168 1610, 3104 1610, 2912 1499, 2912 1462, 3104 1351" fill="#16171c" stroke-width="0" stroke="rgba(0, 0, 0, 0)"></polygon><polygon points="3136 1369, 3328 1480, 3136 1591, 2944 1480" fill="rgba(0, 0, 0, 0)"></polygon></g></g></g><g><g><g><polygon points="1104 1915, 1319 2041, 1488 2137, 1488 2174, 1296 2285, 1232 2285, 848 2063, 848 2026, 1040 1915" fill="#16171c" stroke-width="0" stroke="rgba(0, 0, 0, 0)"></polygon><polygon points="1072 1933, 1287 2060, 1456 2155, 1264 2266, 880 2044" fill="rgba(0, 0, 0, 0)"></polygon></g></g></g></g><g style="pointer-events: none;"><g><pattern id="gridPatternMajor" x="0" y="37" width="128" height="74" patternUnits="userSpaceOnUse"><path d="M 64 0 L 128 37 64 74 0 37 z" stroke="#d5d5d5" stroke-width="1" fill="none"></path></pattern><polygon points="2104 157, 4616 1610, 2104 3062, -408 1610" fill="url(#gridPatternMajor)"></polygon></g></g><g pointer-events="auto"></g><g pointer-events="auto"></g><g pointer-events="auto"></g><g pointer-events="auto"><g><g class="cloud-maps_raptor_node" id="3065468401"></g></g></g><g pointer-events="auto"></g><g pointer-events="auto"></g><g pointer-events="auto"></g><g pointer-events="auto"></g><g pointer-events="auto"></g><g pointer-events="none"></g><g pointer-events="auto"><g id="a825720f-38bf-4d8e-a669-58e22410311b-7d64464f-281b-4067-b2bc-dce9fe5af033"><g cursor="cell"><line x1="1312" y1="1998" x2="1619" y2="1821" stroke="red" stroke-width="11" opacity="0"></line><line x1="1312" y1="1998" x2="1619" y2="1821" stroke="#e91e63" stroke-width="5" stroke-linecap="round"></line><polygon points="1632 1813, 1597 1820, 1615 1823, 1619 1833, 1632 1813" stroke-linejoin="round" fill="#e91e63" stroke="#e91e63" stroke-width="1"></polygon></g></g><g id="739d4c6b-ccb4-4e52-b487-6fa55f4ee710-47445fc4-7b32-4873-b8f9-35cb3d441b9b"><g cursor="cell"><line x1="1888" y1="1665" x2="2176" y2="1499" stroke="red" stroke-width="11" opacity="0"></line><line x1="1888" y1="1665" x2="2176" y2="1499" stroke="#506a8d" stroke-width="5" stroke-linecap="round"></line></g></g><g id="4600cc62-1c12-463a-aa37-9bda280c22a7-a825720f-38bf-4d8e-a669-58e22410311b"><g cursor="cell"><line x1="1184" y1="1924" x2="1312" y2="1998" stroke="red" stroke-width="11" opacity="0"></line><line x1="1184" y1="1924" x2="1312" y2="1998" stroke="#e91e63" stroke-width="5" stroke-linecap="round"></line></g></g><g id="438295d9-8deb-44d9-aec5-3abd1920a09c-67a10e27-777a-4489-9070-69e340b04158"><g cursor="cell"><line x1="1312" y1="1998" x2="1619" y2="1821" stroke="red" stroke-width="11" opacity="0"></line><line x1="1312" y1="1998" x2="1619" y2="1821" stroke="#e91e63" stroke-width="5" stroke-linecap="round"></line><polygon points="1632 1813, 1597 1820, 1615 1823, 1619 1833, 1632 1813" stroke-linejoin="round" fill="#e91e63" stroke="#e91e63" stroke-width="1"></polygon></g></g><g id="afad6c04-11ba-4517-bdcd-64a5eba087e5-67a10e27-777a-4489-9070-69e340b04158"><g cursor="cell"><line x1="1202" y1="2062" x2="1619" y2="1821" stroke="red" stroke-width="11" opacity="0"></line><line x1="1202" y1="2062" x2="1619" y2="1821" stroke="#e91e63" stroke-width="5" stroke-linecap="round"></line><polygon points="1632 1813, 1597 1820, 1615 1823, 1619 1833, 1632 1813" stroke-linejoin="round" fill="#e91e63" stroke="#e91e63" stroke-width="1"></polygon></g></g><g id="41bb5be0-1578-41d8-ab6a-060a2f1c8b7a-d61615fb-119c-4859-bda4-a50ccb3e66f7"><g cursor="cell"><line x1="2736" y1="1711" x2="2995" y2="1562" stroke="red" stroke-width="11" opacity="0"></line><line x1="2736" y1="1711" x2="2995" y2="1562" stroke="#506a8d" stroke-width="5" stroke-linecap="round"></line><polygon points="3008 1554, 2973 1561, 2991 1564, 2995 1574, 3008 1554" stroke-linejoin="round" fill="#506a8d" stroke="#506a8d" stroke-width="1"></polygon></g></g><g id="c22e6dfc-de40-4a4c-9100-ddaa5bfb0c6e-7245afbb-0767-48ee-b212-f7b2808ce525"><g cursor="cell"><line x1="1356" y1="2120" x2="1440" y2="2072" stroke="red" stroke-width="11" opacity="0"></line><line x1="1356" y1="2120" x2="1440" y2="2072" stroke="#e91e63" stroke-width="5" stroke-linecap="round"></line></g></g><g id="739d4c6b-ccb4-4e52-b487-6fa55f4ee710-c1edcbc1-af98-4dcf-8138-b2722b6b6bc1"><g cursor="cell"><line x1="1888" y1="1665" x2="2176" y2="1499" stroke="red" stroke-width="11" opacity="0"></line><line x1="1888" y1="1665" x2="2176" y2="1499" stroke="#506a8d" stroke-width="5" stroke-linecap="round"></line></g></g><g id="7245afbb-0767-48ee-b212-f7b2808ce525-438295d9-8deb-44d9-aec5-3abd1920a09c"><g cursor="cell"><line x1="1440" y1="2072" x2="1312" y2="1998" stroke="red" stroke-width="11" opacity="0"></line><line x1="1440" y1="2072" x2="1312" y2="1998" stroke="#e91e63" stroke-width="5" stroke-linecap="round"></line></g></g><g id="c1edcbc1-af98-4dcf-8138-b2722b6b6bc1-d765a9ab-c953-4b6e-9d9c-2a12a3118c6d"><g cursor="cell"><line x1="2176" y1="1499" x2="2515" y2="1694" stroke="red" stroke-width="11" opacity="0"></line><line x1="2176" y1="1499" x2="2515" y2="1694" stroke="#506a8d" stroke-width="5" stroke-linecap="round"></line><polygon points="2528 1702, 2515 1682, 2511 1692, 2493 1695, 2528 1702" stroke-linejoin="round" fill="#506a8d" stroke="#506a8d" stroke-width="1"></polygon></g></g><g id="47445fc4-7b32-4873-b8f9-35cb3d441b9b-01311955-e8f0-4205-976f-6ab6cc92da94"><g cursor="cell"><line x1="2176" y1="1499" x2="1725" y2="1238" stroke="red" stroke-width="11" opacity="0"></line><line x1="2176" y1="1499" x2="1725" y2="1238" stroke="#506a8d" stroke-width="5" stroke-linecap="round"></line><polygon points="1712 1230, 1725 1251, 1729 1240, 1747 1238, 1712 1230" stroke-linejoin="round" fill="#506a8d" stroke="#506a8d" stroke-width="1"></polygon></g></g><g id="90fc4cc8-ebe2-4d39-a2e3-95e694a49fc0-4600cc62-1c12-463a-aa37-9bda280c22a7"><g cursor="cell"><line x1="1074" y1="1988" x2="1184" y2="1924" stroke="red" stroke-width="11" opacity="0"></line><line x1="1074" y1="1988" x2="1184" y2="1924" stroke="#e91e63" stroke-width="5" stroke-linecap="round"></line></g></g></g><g pointer-events="auto"><g><g class="cloud-maps_raptor_node" id="41bb5be0-1578-41d8-ab6a-060a2f1c8b7a"><g><polygon points="2640 1656, 2768 1730, 2640 1804, 2512 1730" fill="#484e56"></polygon><polygon points="2512 1767, 2640 1841, 2640 1804, 2512 1730" fill="#31353a" stroke="#000"></polygon><polygon points="2640 1841, 2768 1767, 2768 1730, 2640 1804" fill="#1a1c1e" stroke="#000"></polygon><polygon points="2640 1656, 2512 1730, 2512 1767, 2640 1841, 2768 1767, 2768 1730" fill="none" stroke="#131417" stroke-width="2"></polygon></g></g></g><g><g class="cloud-maps_raptor_node" id="739d4c6b-ccb4-4e52-b487-6fa55f4ee710"><svg x="1760" y="1628" width="128" height="111" fill-rule="evenodd" stroke-linejoin="round" stroke-miterlimit="1.414"><path fill="#ccc" d="M64 74v37l64-37V37L64 74Z"></path><path fill="#e6e6e6" d="M0 37v37l64 37V74L0 37Z"></path><path fill="#fff" d="M0 37 64 0l64 37-64 37L0 37Z"></path><path fill="#999" d="m64 73.407 62.111-35.86.514.889-62.487 36.078h-.276L.743 38.072l.514-.89L64 73.407Z"></path><path fill="#999" d="M63.486 74h1.027v36h-1.027z"></path><path fill="#131417" d="M128 37v37l-64 37L0 74V37L64 0l64 37ZM2.054 38.185v34.63L64 108.627l61.946-35.812v-34.63L64 2.373 2.054 38.185Z"></path></svg><svg x="1818" y="1647" width="54" height="36" style="overflow: visible; cursor: default;"><rect transform="matrix(0.707 0.409 -0.707 0.409 0 0)" width="54" height="36" rx="5" ry="5" fill="#ffffff"></rect><text transform="matrix(0.707 0.409 -0.707 0.409 0 0)" font-family="Noto Sans" text-anchor="middle" x="50%" font-weight="normal" font-size="20pt" y="80%" fill="#000000">M5</text></svg></g></g><g><g class="cloud-maps_raptor_node" id="10fcba01-b011-4a70-b416-f113a14084ca"><svg x="1536" y="1573" width="128" height="111" fill-rule="evenodd" stroke-linejoin="round" stroke-miterlimit="1.414"><path fill="#ccc" d="M64 74v37l64-37V37L64 74Z"></path><path fill="#e6e6e6" d="M0 37v37l64 37V74L0 37Z"></path><path fill="#fff" d="M0 37 64 0l64 37-64 37L0 37Z"></path><path fill="#999" d="m64 73.407 62.111-35.86.514.889-62.487 36.078h-.276L.743 38.072l.514-.89L64 73.407Z"></path><path fill="#999" d="M63.486 74h1.027v36h-1.027z"></path><path fill="#131417" d="M128 37v37l-64 37L0 74V37L64 0l64 37ZM2.054 38.185v34.63L64 108.627l61.946-35.812v-34.63L64 2.373 2.054 38.185Z"></path></svg><svg x="1594" y="1591" width="54" height="36" style="overflow: visible; cursor: default;"><rect transform="matrix(0.707 0.409 -0.707 0.409 0 0)" width="54" height="36" rx="5" ry="5" fill="#ffffff"></rect><text transform="matrix(0.707 0.409 -0.707 0.409 0 0)" font-family="Noto Sans" text-anchor="middle" x="50%" font-weight="normal" font-size="20pt" y="80%" fill="#000000">M5</text></svg></g></g><g><g class="cloud-maps_raptor_node" id="96ec3aa9-cc92-4c5f-ab6f-23b54bb024a9"><svg x="1600" y="1610" width="128" height="111" fill-rule="evenodd" stroke-linejoin="round" stroke-miterlimit="1.414"><path fill="#ccc" d="M64 74v37l64-37V37L64 74Z"></path><path fill="#e6e6e6" d="M0 37v37l64 37V74L0 37Z"></path><path fill="#fff" d="M0 37 64 0l64 37-64 37L0 37Z"></path><path fill="#999" d="m64 73.407 62.111-35.86.514.889-62.487 36.078h-.276L.743 38.072l.514-.89L64 73.407Z"></path><path fill="#999" d="M63.486 74h1.027v36h-1.027z"></path><path fill="#131417" d="M128 37v37l-64 37L0 74V37L64 0l64 37ZM2.054 38.185v34.63L64 108.627l61.946-35.812v-34.63L64 2.373 2.054 38.185Z"></path></svg><svg x="1658" y="1628" width="54" height="36" style="overflow: visible; cursor: default;"><rect transform="matrix(0.707 0.409 -0.707 0.409 0 0)" width="54" height="36" rx="5" ry="5" fill="#ffffff"></rect><text transform="matrix(0.707 0.409 -0.707 0.409 0 0)" font-family="Noto Sans" text-anchor="middle" x="50%" font-weight="normal" font-size="20pt" y="80%" fill="#000000">M5</text></svg></g></g><g><g class="cloud-maps_raptor_node" id="36e1aeef-624b-480f-a852-d100b6299bf6"><svg x="1664" y="1647" width="128" height="111" fill-rule="evenodd" stroke-linejoin="round" stroke-miterlimit="1.414"><path fill="#ccc" d="M64 74v37l64-37V37L64 74Z"></path><path fill="#e6e6e6" d="M0 37v37l64 37V74L0 37Z"></path><path fill="#fff" d="M0 37 64 0l64 37-64 37L0 37Z"></path><path fill="#999" d="m64 73.407 62.111-35.86.514.889-62.487 36.078h-.276L.743 38.072l.514-.89L64 73.407Z"></path><path fill="#999" d="M63.486 74h1.027v36h-1.027z"></path><path fill="#131417" d="M128 37v37l-64 37L0 74V37L64 0l64 37ZM2.054 38.185v34.63L64 108.627l61.946-35.812v-34.63L64 2.373 2.054 38.185Z"></path></svg><svg x="1722" y="1665" width="54" height="36" style="overflow: visible; cursor: default;"><rect transform="matrix(0.707 0.409 -0.707 0.409 0 0)" width="54" height="36" rx="5" ry="5" fill="#ffffff"></rect><text transform="matrix(0.707 0.409 -0.707 0.409 0 0)" font-family="Noto Sans" text-anchor="middle" x="50%" font-weight="normal" font-size="20pt" y="80%" fill="#000000">M5</text></svg></g></g><g><g class="cloud-maps_raptor_node" id="bde37c39-e840-4a56-b078-66100fb858c0"><svg x="1728" y="1684" width="128" height="111" fill-rule="evenodd" stroke-linejoin="round" stroke-miterlimit="1.414"><path fill="#ccc" d="M64 74v37l64-37V37L64 74Z"></path><path fill="#e6e6e6" d="M0 37v37l64 37V74L0 37Z"></path><path fill="#fff" d="M0 37 64 0l64 37-64 37L0 37Z"></path><path fill="#999" d="m64 73.407 62.111-35.86.514.889-62.487 36.078h-.276L.743 38.072l.514-.89L64 73.407Z"></path><path fill="#999" d="M63.486 74h1.027v36h-1.027z"></path><path fill="#131417" d="M128 37v37l-64 37L0 74V37L64 0l64 37ZM2.054 38.185v34.63L64 108.627l61.946-35.812v-34.63L64 2.373 2.054 38.185Z"></path></svg><svg x="1786" y="1702" width="54" height="36" style="overflow: visible; cursor: default;"><rect transform="matrix(0.707 0.409 -0.707 0.409 0 0)" width="54" height="36" rx="5" ry="5" fill="#ffffff"></rect><text transform="matrix(0.707 0.409 -0.707 0.409 0 0)" font-family="Noto Sans" text-anchor="middle" x="50%" font-weight="normal" font-size="20pt" y="80%" fill="#000000">M5</text></svg></g></g><g><g class="cloud-maps_raptor_node" id="b33b2090-e61c-4bcb-a51f-ab4454995511"><svg x="1792" y="1721" width="128" height="111" fill-rule="evenodd" stroke-linejoin="round" stroke-miterlimit="1.414"><path fill="#ccc" d="M64 74v37l64-37V37L64 74Z"></path><path fill="#e6e6e6" d="M0 37v37l64 37V74L0 37Z"></path><path fill="#fff" d="M0 37 64 0l64 37-64 37L0 37Z"></path><path fill="#999" d="m64 73.407 62.111-35.86.514.889-62.487 36.078h-.276L.743 38.072l.514-.89L64 73.407Z"></path><path fill="#999" d="M63.486 74h1.027v36h-1.027z"></path><path fill="#131417" d="M128 37v37l-64 37L0 74V37L64 0l64 37ZM2.054 38.185v34.63L64 108.627l61.946-35.812v-34.63L64 2.373 2.054 38.185Z"></path></svg><svg x="1850" y="1739" width="54" height="36" style="overflow: visible; cursor: default;"><rect transform="matrix(0.707 0.409 -0.707 0.409 0 0)" width="54" height="36" rx="5" ry="5" fill="#ffffff"></rect><text transform="matrix(0.707 0.409 -0.707 0.409 0 0)" font-family="Noto Sans" text-anchor="middle" x="50%" font-weight="normal" font-size="20pt" y="80%" fill="#000000">M5</text></svg></g></g><g><g class="cloud-maps_raptor_node" id="bf8167d7-8011-4ab9-9671-977eaf1f271e"><svg x="1856" y="1758" width="128" height="111" fill-rule="evenodd" stroke-linejoin="round" stroke-miterlimit="1.414"><path fill="#ccc" d="M64 74v37l64-37V37L64 74Z"></path><path fill="#e6e6e6" d="M0 37v37l64 37V74L0 37Z"></path><path fill="#fff" d="M0 37 64 0l64 37-64 37L0 37Z"></path><path fill="#999" d="m64 73.407 62.111-35.86.514.889-62.487 36.078h-.276L.743 38.072l.514-.89L64 73.407Z"></path><path fill="#999" d="M63.486 74h1.027v36h-1.027z"></path><path fill="#131417" d="M128 37v37l-64 37L0 74V37L64 0l64 37ZM2.054 38.185v34.63L64 108.627l61.946-35.812v-34.63L64 2.373 2.054 38.185Z"></path></svg><svg x="1914" y="1776" width="54" height="36" style="overflow: visible; cursor: default;"><rect transform="matrix(0.707 0.409 -0.707 0.409 0 0)" width="54" height="36" rx="5" ry="5" fill="#ffffff"></rect><text transform="matrix(0.707 0.409 -0.707 0.409 0 0)" font-family="Noto Sans" text-anchor="middle" x="50%" font-weight="normal" font-size="20pt" y="80%" fill="#000000">M5</text></svg></g></g><g><g class="cloud-maps_raptor_node" id="5316e9d1-9e76-49d5-a11b-efff288a6e02"><svg x="1016" y="2069" width="63" height="95.068"><path fill="#fff" stroke="#131417" d="M62.5 85.684q0 6.102-3.216 7.779-3.216 1.677-8.542-1.398l-38.486-22.22q-5.329-3.077-8.542-8.466Q.501 55.991.498 49.887q0-2.693.156-5.172.155-2.479.616-5.185.461-2.707 1.167-4.845.705-2.139 1.893-3.864 1.19-1.726 2.73-2.541 1.541-.816 3.766-.546 2.224.27 4.91 1.818.397.23 1.849 2.162t3.28 4.333q1.827 2.402 4.757 5.187 2.93 2.785 5.878 4.487 2.95 1.703 5.88 2.301 2.929.598 4.756.306 1.827-.292 3.28-.546 1.452-.255 1.85-.026 2.685 1.55 4.909 3.85 2.224 2.301 3.765 4.894 1.542 2.593 2.73 5.693 1.189 3.101 1.894 6.051.705 2.95 1.166 6.192.462 3.242.617 5.897.155 2.655.155 5.352zm-14.09-53.54q0 8.083-4.955 10.944-4.954 2.86-11.955-1.182-7-4.042-11.955-12.623-4.954-8.58-4.954-16.664 0-8.084 4.954-10.944 4.954-2.86 11.955 1.181 7.001 4.042 11.955 12.623 4.954 8.58 4.954 16.665z" stroke-width=".996"></path></svg></g></g></g><g pointer-events="auto"></g><g pointer-events="auto"><g><g class="cloud-maps_raptor_node" id="86cd7c7a-12a6-4537-aee7-fee64f4e13a8"><svg x="1504" y="1110" overflow="visible"><g transform="scale(4.264961199760036) matrix(0.707 0.409 -0.707 0.409 0 0)"><circle cx="0" cy="0" fill="#ffffff" r="24"></circle><svg width="34" height="32" x="-17" y="-16" style="fill: rgb(0, 0, 0);"><svg xmlns="http://www.w3.org/2000/svg" width="34" height="32" viewBox="0 0 34 32"><path d="M7.429 22.857A2.866 2.866 0 0 1 4.572 20V7.429a2.866 2.866 0 0 1 2.857-2.857h19.429a2.866 2.866 0 0 1 2.857 2.857V20a2.866 2.866 0 0 1-2.857 2.857H7.429zM6.857 7.429V20c0 .304.268.571.571.571h19.429a.587.587 0 0 0 .571-.571V7.429a.587.587 0 0 0-.571-.571H7.428a.587.587 0 0 0-.571.571zM31.429 24h2.857v1.714c0 .946-1.286 1.714-2.857 1.714H2.858c-1.571 0-2.857-.768-2.857-1.714V24H31.43zm-12.858 1.714c.161 0 .286-.125.286-.286s-.125-.286-.286-.286h-2.857c-.161 0-.286.125-.286.286s.125.286.286.286h2.857z"></path></svg></svg></g></svg></g></g><g><g class="cloud-maps_raptor_node" id="035d8478-c144-4556-b44d-33bf8589ccf1"><svg x="3024" y="1471" overflow="visible"><g transform="scale(1.766493702224834) matrix(0.707 0.409 -0.707 0.409 0 0)"><circle cx="0" cy="0" fill="#ffffff" r="31"></circle><svg width="48" height="48" x="-24" y="-24" style="fill: rgb(0, 0, 0);"><svg xmlns="http://www.w3.org/2000/svg" width="48" height="48" viewBox="0 0 48 48"><g fill="none" fill-rule="evenodd"><path fill="#232F3D" d="M42.299 38.773v1.923a.793.793 0 0 1-.793.794H30.762a.794.794 0 0 1-.794-.794v-1.923c0-.438.355-.793.794-.793h10.744c.439 0 .793.355.793.793Zm1.498 3.626a.646.646 0 0 1-.644.645H4.645A.646.646 0 0 1 4 42.399v-5.388c0-.355.289-.644.645-.644h38.508c.355 0 .644.289.644.644v5.388Zm-.644-8.032H4.645A2.648 2.648 0 0 0 2 37.011v5.388a2.649 2.649 0 0 0 2.645 2.645h38.508a2.648 2.648 0 0 0 2.644-2.645v-5.388a2.647 2.647 0 0 0-2.644-2.644ZM7.501 27.21h32.763V7.502H7.501V27.21ZM40.842 5.502H6.924c-.784 0-1.423.637-1.423 1.421v20.865c0 .784.639 1.422 1.423 1.422h33.918c.784 0 1.422-.638 1.422-1.422V6.923c0-.784-.638-1.421-1.422-1.421Zm2.955 24.565a.645.645 0 0 1-.644.644H4.645A.645.645 0 0 1 4 30.067V4.644C4 4.289 4.289 4 4.645 4h38.508c.355 0 .644.289.644.644v25.423ZM43.153 2H4.645A2.648 2.648 0 0 0 2 4.644v25.423a2.648 2.648 0 0 0 2.645 2.644h38.508a2.647 2.647 0 0 0 2.644-2.644V4.644A2.647 2.647 0 0 0 43.153 2Z"></path></g></svg></svg></g></svg></g></g><g><g class="cloud-maps_raptor_node" id="c22e6dfc-de40-4a4c-9100-ddaa5bfb0c6e"><svg x="1296" y="2155" overflow="visible"><g transform="scale(2.760146409726303) matrix(0.707 0.409 -0.707 0.409 0 0)"><circle cx="0" cy="0" fill="#ffffff" r="31"></circle><svg width="48" height="48" x="-24" y="-24" style="fill: rgb(0, 0, 0);"><svg xmlns="http://www.w3.org/2000/svg" width="48" height="48" viewBox="0 0 48 48"><g fill="none" fill-rule="evenodd"><path fill="#232F3D" d="M19.603 6.109a.308.308 0 1 1 0 .616.308.308 0 0 1 0-.616Zm0 2.115a1.81 1.81 0 0 0 1.808-1.807 1.81 1.81 0 0 0-1.808-1.808 1.81 1.81 0 0 0-1.808 1.808 1.81 1.81 0 0 0 1.808 1.807Zm3.409-.823h5.362v-2h-5.362v2Zm9.161 36.425H15.812c-.999 0-1.812-.797-1.812-1.776v-1.409h19.986v1.409c0 .979-.814 1.776-1.813 1.776ZM14 10.802h19.986v27.839H14V10.802ZM16.646 4h14.693c1.459 0 2.647 1.167 2.647 2.6v2.202H14V6.6C14 5.167 15.187 4 16.646 4Zm14.708-2H16.646C14.084 2 12 4.064 12 6.6v35.45c0 2.082 1.71 3.776 3.812 3.776h16.361c2.103 0 3.813-1.694 3.813-3.776V6.597c0-2.53-2.076-4.589-4.632-4.597Z"></path></g></svg></svg></g></svg></g></g><g><g class="cloud-maps_raptor_node" id="d75e08f2-ffde-4004-a048-76c998442ef1"><svg x="3136" y="1425" overflow="visible"><g transform="scale(1.766493702224834) matrix(0.707 0.409 -0.707 0.409 0 0)"><circle cx="0" cy="0" fill="#ffffff" r="31"></circle><svg width="48" height="48" x="-24" y="-24" style="fill: rgb(0, 0, 0);"><svg xmlns="http://www.w3.org/2000/svg" width="48" height="48" viewBox="0 0 48 48"><g fill="none" fill-rule="evenodd"><path fill="#232F3D" d="M42.299 38.773v1.923a.793.793 0 0 1-.793.794H30.762a.794.794 0 0 1-.794-.794v-1.923c0-.438.355-.793.794-.793h10.744c.439 0 .793.355.793.793Zm1.498 3.626a.646.646 0 0 1-.644.645H4.645A.646.646 0 0 1 4 42.399v-5.388c0-.355.289-.644.645-.644h38.508c.355 0 .644.289.644.644v5.388Zm-.644-8.032H4.645A2.648 2.648 0 0 0 2 37.011v5.388a2.649 2.649 0 0 0 2.645 2.645h38.508a2.648 2.648 0 0 0 2.644-2.645v-5.388a2.647 2.647 0 0 0-2.644-2.644ZM7.501 27.21h32.763V7.502H7.501V27.21ZM40.842 5.502H6.924c-.784 0-1.423.637-1.423 1.421v20.865c0 .784.639 1.422 1.423 1.422h33.918c.784 0 1.422-.638 1.422-1.422V6.923c0-.784-.638-1.421-1.422-1.421Zm2.955 24.565a.645.645 0 0 1-.644.644H4.645A.645.645 0 0 1 4 30.067V4.644C4 4.289 4.289 4 4.645 4h38.508c.355 0 .644.289.644.644v25.423ZM43.153 2H4.645A2.648 2.648 0 0 0 2 4.644v25.423a2.648 2.648 0 0 0 2.645 2.644h38.508a2.647 2.647 0 0 0 2.644-2.644V4.644A2.647 2.647 0 0 0 43.153 2Z"></path></g></svg></svg></g></svg></g></g><g><g class="cloud-maps_raptor_node" id="2c97b4b0-dcac-4a13-b173-03e1c8de3c40"><svg x="3232" y="1480" overflow="visible"><g transform="scale(1.766493702224834) matrix(0.707 0.409 -0.707 0.409 0 0)"><circle cx="0" cy="0" fill="#ffffff" r="31"></circle><svg width="48" height="48" x="-24" y="-24" style="fill: rgb(0, 0, 0);"><svg xmlns="http://www.w3.org/2000/svg" width="48" height="48" viewBox="0 0 48 48"><g fill="none" fill-rule="evenodd"><path fill="#232F3D" d="M19.603 6.109a.308.308 0 1 1 0 .616.308.308 0 0 1 0-.616Zm0 2.115a1.81 1.81 0 0 0 1.808-1.807 1.81 1.81 0 0 0-1.808-1.808 1.81 1.81 0 0 0-1.808 1.808 1.81 1.81 0 0 0 1.808 1.807Zm3.409-.823h5.362v-2h-5.362v2Zm9.161 36.425H15.812c-.999 0-1.812-.797-1.812-1.776v-1.409h19.986v1.409c0 .979-.814 1.776-1.813 1.776ZM14 10.802h19.986v27.839H14V10.802ZM16.646 4h14.693c1.459 0 2.647 1.167 2.647 2.6v2.202H14V6.6C14 5.167 15.187 4 16.646 4Zm14.708-2H16.646C14.084 2 12 4.064 12 6.6v35.45c0 2.082 1.71 3.776 3.812 3.776h16.361c2.103 0 3.813-1.694 3.813-3.776V6.597c0-2.53-2.076-4.589-4.632-4.597Z"></path></g></svg></svg></g></svg></g></g><g><g class="cloud-maps_raptor_node" id="90fc4cc8-ebe2-4d39-a2e3-95e694a49fc0"><svg x="1024" y="2017" overflow="visible"><g transform="scale(1.3975424859373686) matrix(0.707 0.409 -0.707 0.409 0 0)"><circle cx="0" cy="0" fill="transparent" r="40"></circle><svg width="100" height="100" x="-50" y="-50" style="fill: rgb(0, 0, 0);"><svg xmlns="http://www.w3.org/2000/svg" width="100" height="100" data-name="Layer 1" viewBox="0 0 100 100"><g><rect width="53" height="53" x="23.5" y="25.99" fill="#19486f" rx="9.12" ry="9.12"></rect><rect width="53" height="53" x="23.5" y="23.51" fill="#2e73b8" rx="9.12" ry="9.12"></rect><path fill="#2e73b8" d="M60 14.4h4v13.65h-4zM36 14.4h4v13.65h-4zM54 14.4h4v13.65h-4zM42 14.4h4v13.65h-4zM48 14.4h4v13.65h-4zM14.4 60h18.1v4H14.4zM14.4 42h18.1v4H14.4zM14.4 54h18.1v4H14.4zM14.4 48h18.1v4H14.4zM14.4 36h18.1v4H14.4zM36 69.88h4V85.6h-4zM60 69.88h4V85.6h-4zM42 69.88h4V85.6h-4zM54 69.88h4V85.6h-4zM48 69.88h4V85.6h-4zM69.67 54h15.94v4H69.67zM69.67 36h15.94v4H69.67zM69.67 48h15.94v4H69.67zM69.67 42h15.94v4H69.67zM69.67 60h15.94v4H69.67z"></path><path fill="#fff" d="M28.45 58.11h-.65a1.5 1.5 0 0 1 0-3h.66a1.5 1.5 0 0 1 0 3ZM73.49 58.4h-.66a1.5 1.5 0 0 1 0-3h.66a1.5 1.5 0 0 1 0 3Z"></path><g><path fill="#2e73b8" d="M67.38 58h3.83v-3.4c0-7-8.37-7-8.37-7l-3.17-7.42H43.92l-2.17 7.17-11.92 3.3V58h2.86"></path><path fill="#fff" d="M71.21 59.5h-3.83a1.5 1.5 0 0 1 0-3h2.33v-1.9c0-5.35-6.17-5.54-6.88-5.54a1.51 1.51 0 0 1-1.38-.91l-2.78-6.51H45l-1.84 6.1a1.5 1.5 0 0 1-1 1l-10.82 3v4.76h1.36a1.5 1.5 0 0 1 0 3h-2.87a1.5 1.5 0 0 1-1.5-1.5v-7.35a1.5 1.5 0 0 1 1.1-1.44l11.12-3.11 1.93-6.38a1.5 1.5 0 0 1 1.44-1.07h15.75a1.5 1.5 0 0 1 1.38.91l2.8 6.55c3.54.32 8.86 2.36 8.86 8.49V58a1.5 1.5 0 0 1-1.5 1.5Z"></path></g><g><path fill="#2e73b8" d="M67.38 58h3.83v-3.4c0-7-8.37-7-8.37-7l-3.17-7.42H43.92l-2.17 7.17-11.92 3.3V58h2.86"></path><path fill="#fff" d="M71.21 59.5h-3.83a1.5 1.5 0 0 1 0-3h2.33v-1.9c0-5.35-6.17-5.54-6.88-5.54a1.51 1.51 0 0 1-1.38-.91l-2.78-6.51H45l-1.84 6.1a1.5 1.5 0 0 1-1 1l-10.82 3v4.76h1.36a1.5 1.5 0 0 1 0 3h-2.87a1.5 1.5 0 0 1-1.5-1.5v-7.35a1.5 1.5 0 0 1 1.1-1.44l11.12-3.11 1.93-6.38a1.5 1.5 0 0 1 1.44-1.07h15.75a1.5 1.5 0 0 1 1.38.91l2.8 6.55c3.54.32 8.86 2.36 8.86 8.49V58a1.5 1.5 0 0 1-1.5 1.5Z"></path></g><g><circle cx="36.98" cy="58" r="3.94" fill="#2e73b8"></circle><path fill="#fff" d="M37 63.44A5.44 5.44 0 1 1 42.42 58 5.44 5.44 0 0 1 37 63.44Zm0-7.87A2.44 2.44 0 1 0 39.42 58 2.44 2.44 0 0 0 37 55.57Z"></path></g><g><circle cx="62.83" cy="58" r="3.94" fill="#2e73b8"></circle><path fill="#fff" d="M62.83 63.44A5.44 5.44 0 1 1 68.27 58a5.44 5.44 0 0 1-5.44 5.44Zm0-7.87A2.44 2.44 0 1 0 65.27 58a2.44 2.44 0 0 0-2.44-2.43Z"></path></g><path fill="#fff" d="M58.25 59.5H41.63a1.5 1.5 0 0 1 0-3h16.62a1.5 1.5 0 0 1 0 3Z"></path></g></svg></svg></g></svg></g></g><g><g class="cloud-maps_raptor_node" id="afad6c04-11ba-4517-bdcd-64a5eba087e5"><svg x="1152" y="2091" overflow="visible"><g transform="scale(1.3975424859373686) matrix(0.707 0.409 -0.707 0.409 0 0)"><circle cx="0" cy="0" fill="transparent" r="40"></circle><svg width="100" height="100" x="-50" y="-50" style="fill: rgb(0, 0, 0);"><svg xmlns="http://www.w3.org/2000/svg" width="100" height="100" data-name="Layer 1" viewBox="0 0 100 100"><g><rect width="53" height="53" x="23.5" y="25.99" fill="#19486f" rx="9.12" ry="9.12"></rect><rect width="53" height="53" x="23.5" y="23.51" fill="#2e73b8" rx="9.12" ry="9.12"></rect><path fill="#2e73b8" d="M60 14.4h4v13.65h-4zM36 14.4h4v13.65h-4zM54 14.4h4v13.65h-4zM42 14.4h4v13.65h-4zM48 14.4h4v13.65h-4zM14.4 60h18.1v4H14.4zM14.4 42h18.1v4H14.4zM14.4 54h18.1v4H14.4zM14.4 48h18.1v4H14.4zM14.4 36h18.1v4H14.4zM36 69.88h4V85.6h-4zM60 69.88h4V85.6h-4zM42 69.88h4V85.6h-4zM54 69.88h4V85.6h-4zM48 69.88h4V85.6h-4zM69.67 54h15.94v4H69.67zM69.67 36h15.94v4H69.67zM69.67 48h15.94v4H69.67zM69.67 42h15.94v4H69.67zM69.67 60h15.94v4H69.67zM38.67 50.15l2.83-8L57 43.82l6 12.83-19.33 4.5-5-11z"></path><g><circle cx="36.75" cy="57.6" r="7.72" fill="#2e73b8"></circle><path fill="#fff" d="M36.75 66.82A9.22 9.22 0 1 1 46 57.6a9.23 9.23 0 0 1-9.25 9.22Zm0-15.44A6.22 6.22 0 1 0 43 57.6a6.23 6.23 0 0 0-6.25-6.22Z"></path></g><g><path fill="#2e73b8" d="M55.53 57.6a7.72 7.72 0 1 1 7.72 7.72 7.72 7.72 0 0 1-7.72-7.72"></path><path fill="#fff" d="M63.25 66.82a9.22 9.22 0 1 1 9.22-9.22 9.23 9.23 0 0 1-9.22 9.22Zm0-15.44a6.22 6.22 0 1 0 6.22 6.22 6.23 6.23 0 0 0-6.22-6.22Z"></path></g><path fill="#fff" d="M36.75 59.1a1.5 1.5 0 0 1-1.43-1.94l4.75-15.45a1.5 1.5 0 0 1 2.75-.28l7.13 13 5.72-11.25a1.45 1.45 0 0 1 1.33-.86 1.5 1.5 0 0 1 1.33.88L64.62 57a1.5 1.5 0 0 1-1.37 2.12H50a1.6 1.6 0 0 1-.68-.15 1.49 1.49 0 0 1-.63-.62L41.89 46l-3.71 12a1.5 1.5 0 0 1-1.43 1.1Zm15.7-3h8.48l-4-8.82Z"></path><path fill="#fff" d="M65.58 59.1h-18l9.52-18.74Zm-13.13-3h8.48l-4-8.82Z"></path><path fill="#fff" d="M57 45.32h-.16l-15.46-1.67A6.42 6.42 0 0 1 37 41.72a4 4 0 0 1-.82-3.24 4.53 4.53 0 0 1 1.5-3 4.37 4.37 0 0 1 3.54-.85 1.5 1.5 0 1 1-.42 3 1.18 1.18 0 0 0-1.62 1.14s0 .11 0 .16a1.06 1.06 0 0 0 .17.93 3.58 3.58 0 0 0 2.21.83l15.6 1.67a1.5 1.5 0 0 1-.16 3Z"></path><path fill="#fff" d="M56.88 47.07a1.5 1.5 0 0 1-1.5-1.5v-4.82a1.5 1.5 0 0 1 3 0v4.81a1.5 1.5 0 0 1-1.5 1.51Z"></path><g><circle cx="50" cy="57.6" r="2.18" fill="#2e73b8"></circle><path fill="#fff" d="M50 61.28a3.68 3.68 0 1 1 3.68-3.68A3.69 3.69 0 0 1 50 61.28Zm0-4.37a.68.68 0 1 0 .68.68.68.68 0 0 0-.68-.68Z"></path></g><path fill="#fff" d="M58.39 41.44h-4.85a1.5 1.5 0 0 1 0-3h4.85c.32 0 .32-.12.32-.33a1.5 1.5 0 0 1 3 0 3.27 3.27 0 0 1-3.32 3.33Z"></path></g></svg></svg></g></svg></g></g><g><g class="cloud-maps_raptor_node" id="4a4ca2ed-5ef5-4484-b0fb-93f3e5cc0eb3"><svg x="3120" y="1526" overflow="visible"><g transform="scale(1.766493702224834) matrix(0.707 0.409 -0.707 0.409 0 0)"><circle cx="0" cy="0" fill="#ffffff" r="31"></circle><svg width="48" height="48" x="-24" y="-24" style="fill: rgb(0, 0, 0);"><svg xmlns="http://www.w3.org/2000/svg" width="48" height="48" viewBox="0 0 48 48"><g fill="none" fill-rule="evenodd"><path fill="#232F3D" d="M19.603 6.109a.308.308 0 1 1 0 .616.308.308 0 0 1 0-.616Zm0 2.115a1.81 1.81 0 0 0 1.808-1.807 1.81 1.81 0 0 0-1.808-1.808 1.81 1.81 0 0 0-1.808 1.808 1.81 1.81 0 0 0 1.808 1.807Zm3.409-.823h5.362v-2h-5.362v2Zm9.161 36.425H15.812c-.999 0-1.812-.797-1.812-1.776v-1.409h19.986v1.409c0 .979-.814 1.776-1.813 1.776ZM14 10.802h19.986v27.839H14V10.802ZM16.646 4h14.693c1.459 0 2.647 1.167 2.647 2.6v2.202H14V6.6C14 5.167 15.187 4 16.646 4Zm14.708-2H16.646C14.084 2 12 4.064 12 6.6v35.45c0 2.082 1.71 3.776 3.812 3.776h16.361c2.103 0 3.813-1.694 3.813-3.776V6.597c0-2.53-2.076-4.589-4.632-4.597Z"></path></g></svg></svg></g></svg></g></g></g><g pointer-events="auto"><g><g class="cloud-maps_raptor_node" id="a08355ca-e94f-4efa-9e59-1b333faefd5c" transform="translate(0 0)"><svg x="2368" y="1776" overflow="visible"><text stroke="#000000" stroke-width="2" font-family="Noto Sans" y="46.76" font-size="34pt" fill="#ffffff" font-weight="bold" transform="matrix(0.707 0.409 -0.707 0.409 0 0)" xml:space="preserve"><tspan x="8" dy="0">Our pusher server</tspan></text><text font-family="Noto Sans" y="46.76" font-size="34pt" fill="#ffffff" font-weight="bold" transform="matrix(0.707 0.409 -0.707 0.409 0 0)" xml:space="preserve"><tspan x="8" dy="0">Our pusher server</tspan></text></svg></g></g><g><g class="cloud-maps_raptor_node" id="4b1286e3-74c0-42cc-96af-f259ce75adc1" transform="translate(0 0)"><svg x="1520" y="1674" overflow="visible"><text stroke="#000000" stroke-width="2" font-family="Noto Sans" y="46.76" font-size="34pt" fill="#ffffff" font-weight="bold" transform="matrix(0.707 0.409 -0.707 0.409 0 0)" xml:space="preserve"><tspan x="8" dy="0">Pulsetracker servers</tspan></text><text font-family="Noto Sans" y="46.76" font-size="34pt" fill="#ffffff" font-weight="bold" transform="matrix(0.707 0.409 -0.707 0.409 0 0)" xml:space="preserve"><tspan x="8" dy="0">Pulsetracker servers</tspan></text></svg></g></g><g><g class="cloud-maps_raptor_node" id="904317b3-f83b-4f82-a350-e9a6e8b46cde" transform="translate(0 0)"><svg x="1312" y="1758" overflow="visible"><text stroke="#000000" stroke-width="2" font-family="Noto Sans" y="46.76" font-size="34pt" fill="#ffffff" font-weight="bold" transform="matrix(0.707 0.409 -0.707 0.409 0 0)" xml:space="preserve"><tspan x="8" dy="0">UDP ,</tspan><tspan x="8" dy="1.1em">Websockets</tspan></text><text font-family="Noto Sans" y="46.76" font-size="34pt" fill="#ffffff" font-weight="bold" transform="matrix(0.707 0.409 -0.707 0.409 0 0)" xml:space="preserve"><tspan x="8" dy="0">UDP ,</tspan><tspan x="8" dy="1.1em">Websockets</tspan></text></svg></g></g><g><g class="cloud-maps_raptor_node" id="56bb5291-9598-4d4c-b0ff-943e70928345"><svg x="1152" y="2146" overflow="visible"><text stroke="#000000" stroke-width="2" font-family="Noto Sans" y="36.5" font-size="25pt" fill="#ffffff" font-weight="bold" transform="matrix(0.707 0.409 -0.707 0.409 0 0)" xml:space="preserve"><tspan x="8" dy="0">Mobile client</tspan></text><text font-family="Noto Sans" y="36.5" font-size="25pt" fill="#ffffff" font-weight="bold" transform="matrix(0.707 0.409 -0.707 0.409 0 0)" xml:space="preserve"><tspan x="8" dy="0">Mobile client</tspan></text></svg></g></g><g><g class="cloud-maps_raptor_node" id="8f2225ab-c31f-4c88-b0e1-e43c5632de99" transform="translate(0 0)"><svg x="2880" y="1628" overflow="visible"><text stroke="#000000" stroke-width="2" font-family="Noto Sans" y="46.76" font-size="34pt" fill="#ffffff" font-weight="bold" transform="matrix(0.707 0.409 -0.707 0.409 0 0)" xml:space="preserve"><tspan x="8" dy="0">websockets</tspan></text><text font-family="Noto Sans" y="46.76" font-size="34pt" fill="#ffffff" font-weight="bold" transform="matrix(0.707 0.409 -0.707 0.409 0 0)" xml:space="preserve"><tspan x="8" dy="0">websockets</tspan></text></svg></g></g><g><g class="cloud-maps_raptor_node" id="50170614-7996-4e8b-8bc3-11b1a832a53e" transform="translate(0 0)"><svg x="928" y="2128" overflow="visible"><text stroke="#000000" stroke-width="2" font-family="Noto Sans" y="46.76" font-size="34pt" fill="#ffffff" font-weight="bold" transform="matrix(0.707 0.409 -0.707 0.409 0 0)" xml:space="preserve"><tspan x="8" dy="0">You devices</tspan></text><text font-family="Noto Sans" y="46.76" font-size="34pt" fill="#ffffff" font-weight="bold" transform="matrix(0.707 0.409 -0.707 0.409 0 0)" xml:space="preserve"><tspan x="8" dy="0">You devices</tspan></text></svg></g></g><g><g class="cloud-maps_raptor_node" id="05b1c03e-79fd-4885-b2d5-0798054d1271"><svg x="1120" y="1055" overflow="visible"><text stroke="#000000" stroke-width="2" font-family="Noto Sans" y="46.76" font-size="34pt" fill="#ffffff" font-weight="bold" transform="matrix(0.707 0.409 -0.707 0.409 0 0)" xml:space="preserve"><tspan x="8" dy="0">Pulsetracker dashboard &amp; map</tspan></text><text font-family="Noto Sans" y="46.76" font-size="34pt" fill="#ffffff" font-weight="bold" transform="matrix(0.707 0.409 -0.707 0.409 0 0)" xml:space="preserve"><tspan x="8" dy="0">Pulsetracker dashboard &amp; map</tspan></text></svg></g></g><g><g class="cloud-maps_raptor_node" id="c2380f38-d1e0-4071-b983-622bdc1a65e0" transform="translate(0 0)"><svg x="2784" y="1258" overflow="visible"><text stroke="#000000" stroke-width="2" font-family="Noto Sans" y="46.76" font-size="34pt" fill="#ffffff" font-weight="bold" transform="matrix(0.707 0.409 -0.707 0.409 0 0)" xml:space="preserve"><tspan x="8" dy="0">Your backend</tspan></text><text font-family="Noto Sans" y="46.76" font-size="34pt" fill="#ffffff" font-weight="bold" transform="matrix(0.707 0.409 -0.707 0.409 0 0)" xml:space="preserve"><tspan x="8" dy="0">Your backend</tspan></text></svg></g></g></g></g></svg>